0
SECTION
2
ENTITIES
  0
3DFACE
  8
DEFAULT
 10
0.5
 20
0.5
 30
1
 11
0.197049
 21
0.802951
 31
0.972222
 12
0.5
 22
0.9375
 32
0.9375
 13
0.5
 23
0.9375
 33
0.9375
  0
3DFACE
  8
DEFAULT
 10
0.5
 20
0.9375
 30
0.9375
 11
0.197049
 21
0.802951
 31
0.972222
 12
0.0833333
 22
0.916667
 32
0.916667
 13
0.0833333
 23
0.916667
 33
0.916667
  0
3DFACE
  8
DEFAULT
 10
0.0833333
 20
0.916667
 30
0.916667
 11
0.197049
 21
0.802951
 31
0.972222
 12
0.0625
 22
0.5
 32
0.9375
 13
0.0625
 23
0.5
 33
0.9375
  0
3DFACE
  8
DEFAULT
 10
0.0625
 20
0.5
 30
0.9375
 11
0.197049
 21
0.802951
 31
0.972222
 12
0.5
 22
0.5
 32
1
 13
0.5
 23
0.5
 33
1
  0
3DFACE
  8
DEFAULT
 10
0.5
 20
0.5
 30
1
 11
0.197049
 21
0.197049
 31
0.972222
 12
0.0625
 22
0.5
 32
0.9375
 13
0.0625
 23
0.5
 33
0.9375
  0
3DFACE
  8
DEFAULT
 10
0.0625
 20
0.5
 30
0.9375
 11
0.197049
 21
0.197049
 31
0.972222
 12
0.0833333
 22
0.0833333
 32
0.916667
 13
0.0833333
 23
0.0833333
 33
0.916667
  0
3DFACE
  8
DEFAULT
 10
0.0833333
 20
0.0833333
 30
0.916667
 11
0.197049
 21
0.197049
 31
0.972222
 12
0.5
 22
0.0625
 32
0.9375
 13
0.5
 23
0.0625
 33
0.9375
  0
3DFACE
  8
DEFAULT
 10
0.5
 20
0.0625
 30
0.9375
 11
0.197049
 21
0.197049
 31
0.972222
 12
0.5
 22
0.5
 32
1
 13
0.5
 23
0.5
 33
1
  0
3DFACE
  8
DEFAULT
 10
0.5
 20
0.5
 30
1
 11
0.802951
 21
0.197049
 31
0.972222
 12
0.5
 22
0.0625
 32
0.9375
 13
0.5
 23
0.0625
 33
0.9375
  0
3DFACE
  8
DEFAULT
 10
0.5
 20
0.0625
 30
0.9375
 11
0.802951
 21
0.197049
 31
0.972222
 12
0.916667
 22
0.0833333
 32
0.916667
 13
0.916667
 23
0.0833333
 33
0.916667
  0
3DFACE
  8
DEFAULT
 10
0.916667
 20
0.0833333
 30
0.916667
 11
0.802951
 21
0.197049
 31
0.972222
 12
0.9375
 22
0.5
 32
0.9375
 13
0.9375
 23
0.5
 33
0.9375
  0
3DFACE
  8
DEFAULT
 10
0.9375
 20
0.5
 30
0.9375
 11
0.802951
 21
0.197049
 31
0.972222
 12
0.5
 22
0.5
 32
1
 13
0.5
 23
0.5
 33
1
  0
3DFACE
  8
DEFAULT
 10
0.5
 20
0.5
 30
1
 11
0.802951
 21
0.802951
 31
0.972222
 12
0.9375
 22
0.5
 32
0.9375
 13
0.9375
 23
0.5
 33
0.9375
  0
3DFACE
  8
DEFAULT
 10
0.9375
 20
0.5
 30
0.9375
 11
0.802951
 21
0.802951
 31
0.972222
 12
0.916667
 22
0.916667
 32
0.916667
 13
0.916667
 23
0.916667
 33
0.916667
  0
3DFACE
  8
DEFAULT
 10
0.916667
 20
0.916667
 30
0.916667
 11
0.802951
 21
0.802951
 31
0.972222
 12
0.5
 22
0.9375
 32
0.9375
 13
0.5
 23
0.9375
 33
0.9375
  0
3DFACE
  8
DEFAULT
 10
0.5
 20
0.9375
 30
0.9375
 11
0.802951
 21
0.802951
 31
0.972222
 12
0.5
 22
0.5
 32
1
 13
0.5
 23
0.5
 33
1
  0
3DFACE
  8
DEFAULT
 10
1
 20
0.5
 30
0.5
 11
0.972222
 21
0.802951
 31
0.802951
 12
0.9375
 22
0.9375
 32
0.5
 13
0.9375
 23
0.9375
 33
0.5
  0
3DFACE
  8
DEFAULT
 10
0.9375
 20
0.9375
 30
0.5
 11
0.972222
 21
0.802951
 31
0.802951
 12
0.916667
 22
0.916667
 32
0.916667
 13
0.916667
 23
0.916667
 33
0.916667
  0
3DFACE
  8
DEFAULT
 10
0.916667
 20
0.916667
 30
0.916667
 11
0.972222
 21
0.802951
 31
0.802951
 12
0.9375
 22
0.5
 32
0.9375
 13
0.9375
 23
0.5
 33
0.9375
  0
3DFACE
  8
DEFAULT
 10
0.9375
 20
0.5
 30
0.9375
 11
0.972222
 21
0.802951
 31
0.802951
 12
1
 22
0.5
 32
0.5
 13
1
 23
0.5
 33
0.5
  0
3DFACE
  8
DEFAULT
 10
1
 20
0.5
 30
0.5
 11
0.972222
 21
0.197049
 31
0.802951
 12
0.9375
 22
0.5
 32
0.9375
 13
0.9375
 23
0.5
 33
0.9375
  0
3DFACE
  8
DEFAULT
 10
0.9375
 20
0.5
 30
0.9375
 11
0.972222
 21
0.197049
 31
0.802951
 12
0.916667
 22
0.0833333
 32
0.916667
 13
0.916667
 23
0.0833333
 33
0.916667
  0
3DFACE
  8
DEFAULT
 10
0.916667
 20
0.0833333
 30
0.916667
 11
0.972222
 21
0.197049
 31
0.802951
 12
0.9375
 22
0.0625
 32
0.5
 13
0.9375
 23
0.0625
 33
0.5
  0
3DFACE
  8
DEFAULT
 10
0.9375
 20
0.0625
 30
0.5
 11
0.972222
 21
0.197049
 31
0.802951
 12
1
 22
0.5
 32
0.5
 13
1
 23
0.5
 33
0.5
  0
3DFACE
  8
DEFAULT
 10
1
 20
0.5
 30
0.5
 11
0.972222
 21
0.197049
 31
0.197049
 12
0.9375
 22
0.0625
 32
0.5
 13
0.9375
 23
0.0625
 33
0.5
  0
3DFACE
  8
DEFAULT
 10
0.9375
 20
0.0625
 30
0.5
 11
0.972222
 21
0.197049
 31
0.197049
 12
0.916667
 22
0.0833333
 32
0.0833333
 13
0.916667
 23
0.0833333
 33
0.0833333
  0
3DFACE
  8
DEFAULT
 10
0.916667
 20
0.0833333
 30
0.0833333
 11
0.972222
 21
0.197049
 31
0.197049
 12
0.9375
 22
0.5
 32
0.0625
 13
0.9375
 23
0.5
 33
0.0625
  0
3DFACE
  8
DEFAULT
 10
0.9375
 20
0.5
 30
0.0625
 11
0.972222
 21
0.197049
 31
0.197049
 12
1
 22
0.5
 32
0.5
 13
1
 23
0.5
 33
0.5
  0
3DFACE
  8
DEFAULT
 10
1
 20
0.5
 30
0.5
 11
0.972222
 21
0.802951
 31
0.197049
 12
0.9375
 22
0.5
 32
0.0625
 13
0.9375
 23
0.5
 33
0.0625
  0
3DFACE
  8
DEFAULT
 10
0.9375
 20
0.5
 30
0.0625
 11
0.972222
 21
0.802951
 31
0.197049
 12
0.916667
 22
0.916667
 32
0.0833333
 13
0.916667
 23
0.916667
 33
0.0833333
  0
3DFACE
  8
DEFAULT
 10
0.916667
 20
0.916667
 30
0.0833333
 11
0.972222
 21
0.802951
 31
0.197049
 12
0.9375
 22
0.9375
 32
0.5
 13
0.9375
 23
0.9375
 33
0.5
  0
3DFACE
  8
DEFAULT
 10
0.9375
 20
0.9375
 30
0.5
 11
0.972222
 21
0.802951
 31
0.197049
 12
1
 22
0.5
 32
0.5
 13
1
 23
0.5
 33
0.5
  0
3DFACE
  8
DEFAULT
 10
0.5
 20
0.5
 30
0
 11
0.802951
 21
0.802951
 31
0.0277778
 12
0.5
 22
0.9375
 32
0.0625
 13
0.5
 23
0.9375
 33
0.0625
  0
3DFACE
  8
DEFAULT
 10
0.5
 20
0.9375
 30
0.0625
 11
0.802951
 21
0.802951
 31
0.0277778
 12
0.916667
 22
0.916667
 32
0.0833333
 13
0.916667
 23
0.916667
 33
0.0833333
  0
3DFACE
  8
DEFAULT
 10
0.916667
 20
0.916667
 30
0.0833333
 11
0.802951
 21
0.802951
 31
0.0277778
 12
0.9375
 22
0.5
 32
0.0625
 13
0.9375
 23
0.5
 33
0.0625
  0
3DFACE
  8
DEFAULT
 10
0.9375
 20
0.5
 30
0.0625
 11
0.802951
 21
0.802951
 31
0.0277778
 12
0.5
 22
0.5
 32
0
 13
0.5
 23
0.5
 33
0
  0
3DFACE
  8
DEFAULT
 10
0.5
 20
0.5
 30
0
 11
0.802951
 21
0.197049
 31
0.0277778
 12
0.9375
 22
0.5
 32
0.0625
 13
0.9375
 23
0.5
 33
0.0625
  0
3DFACE
  8
DEFAULT
 10
0.9375
 20
0.5
 30
0.0625
 11
0.802951
 21
0.197049
 31
0.0277778
 12
0.916667
 22
0.0833333
 32
0.0833333
 13
0.916667
 23
0.0833333
 33
0.0833333
  0
3DFACE
  8
DEFAULT
 10
0.916667
 20
0.0833333
 30
0.0833333
 11
0.802951
 21
0.197049
 31
0.0277778
 12
0.5
 22
0.0625
 32
0.0625
 13
0.5
 23
0.0625
 33
0.0625
  0
3DFACE
  8
DEFAULT
 10
0.5
 20
0.0625
 30
0.0625
 11
0.802951
 21
0.197049
 31
0.0277778
 12
0.5
 22
0.5
 32
0
 13
0.5
 23
0.5
 33
0
  0
3DFACE
  8
DEFAULT
 10
0.5
 20
0.5
 30
0
 11
0.197049
 21
0.197049
 31
0.0277778
 12
0.5
 22
0.0625
 32
0.0625
 13
0.5
 23
0.0625
 33
0.0625
  0
3DFACE
  8
DEFAULT
 10
0.5
 20
0.0625
 30
0.0625
 11
0.197049
 21
0.197049
 31
0.0277778
 12
0.0833333
 22
0.0833333
 32
0.0833333
 13
0.0833333
 23
0.0833333
 33
0.0833333
  0
3DFACE
  8
DEFAULT
 10
0.0833333
 20
0.0833333
 30
0.0833333
 11
0.197049
 21
0.197049
 31
0.0277778
 12
0.0625
 22
0.5
 32
0.0625
 13
0.0625
 23
0.5
 33
0.0625
  0
3DFACE
  8
DEFAULT
 10
0.0625
 20
0.5
 30
0.0625
 11
0.197049
 21
0.197049
 31
0.0277778
 12
0.5
 22
0.5
 32
0
 13
0.5
 23
0.5
 33
0
  0
3DFACE
  8
DEFAULT
 10
0.5
 20
0.5
 30
0
 11
0.197049
 21
0.802951
 31
0.0277778
 12
0.0625
 22
0.5
 32
0.0625
 13
0.0625
 23
0.5
 33
0.0625
  0
3DFACE
  8
DEFAULT
 10
0.0625
 20
0.5
 30
0.0625
 11
0.197049
 21
0.802951
 31
0.0277778
 12
0.0833333
 22
0.916667
 32
0.0833333
 13
0.0833333
 23
0.916667
 33
0.0833333
  0
3DFACE
  8
DEFAULT
 10
0.0833333
 20
0.916667
 30
0.0833333
 11
0.197049
 21
0.802951
 31
0.0277778
 12
0.5
 22
0.9375
 32
0.0625
 13
0.5
 23
0.9375
 33
0.0625
  0
3DFACE
  8
DEFAULT
 10
0.5
 20
0.9375
 30
0.0625
 11
0.197049
 21
0.802951
 31
0.0277778
 12
0.5
 22
0.5
 32
0
 13
0.5
 23
0.5
 33
0
  0
3DFACE
  8
DEFAULT
 10
0
 20
0.5
 30
0.5
 11
0.0277778
 21
0.802951
 31
0.197049
 12
0.0625
 22
0.9375
 32
0.5
 13
0.0625
 23
0.9375
 33
0.5
  0
3DFACE
  8
DEFAULT
 10
0.0625
 20
0.9375
 30
0.5
 11
0.0277778
 21
0.802951
 31
0.197049
 12
0.0833333
 22
0.916667
 32
0.0833333
 13
0.0833333
 23
0.916667
 33
0.0833333
  0
3DFACE
  8
DEFAULT
 10
0.0833333
 20
0.916667
 30
0.0833333
 11
0.0277778
 21
0.802951
 31
0.197049
 12
0.0625
 22
0.5
 32
0.0625
 13
0.0625
 23
0.5
 33
0.0625
  0
3DFACE
  8
DEFAULT
 10
0.0625
 20
0.5
 30
0.0625
 11
0.0277778
 21
0.802951
 31
0.197049
 12
0
 22
0.5
 32
0.5
 13
0
 23
0.5
 33
0.5
  0
3DFACE
  8
DEFAULT
 10
0
 20
0.5
 30
0.5
 11
0.0277778
 21
0.197049
 31
0.197049
 12
0.0625
 22
0.5
 32
0.0625
 13
0.0625
 23
0.5
 33
0.0625
  0
3DFACE
  8
DEFAULT
 10
0.0625
 20
0.5
 30
0.0625
 11
0.0277778
 21
0.197049
 31
0.197049
 12
0.0833333
 22
0.0833333
 32
0.0833333
 13
0.0833333
 23
0.0833333
 33
0.0833333
  0
3DFACE
  8
DEFAULT
 10
0.0833333
 20
0.0833333
 30
0.0833333
 11
0.0277778
 21
0.197049
 31
0.197049
 12
0.0625
 22
0.0625
 32
0.5
 13
0.0625
 23
0.0625
 33
0.5
  0
3DFACE
  8
DEFAULT
 10
0.0625
 20
0.0625
 30
0.5
 11
0.0277778
 21
0.197049
 31
0.197049
 12
0
 22
0.5
 32
0.5
 13
0
 23
0.5
 33
0.5
  0
3DFACE
  8
DEFAULT
 10
0
 20
0.5
 30
0.5
 11
0.0277778
 21
0.197049
 31
0.802951
 12
0.0625
 22
0.0625
 32
0.5
 13
0.0625
 23
0.0625
 33
0.5
  0
3DFACE
  8
DEFAULT
 10
0.0625
 20
0.0625
 30
0.5
 11
0.0277778
 21
0.197049
 31
0.802951
 12
0.0833333
 22
0.0833333
 32
0.916667
 13
0.0833333
 23
0.0833333
 33
0.916667
  0
3DFACE
  8
DEFAULT
 10
0.0833333
 20
0.0833333
 30
0.916667
 11
0.0277778
 21
0.197049
 31
0.802951
 12
0.0625
 22
0.5
 32
0.9375
 13
0.0625
 23
0.5
 33
0.9375
  0
3DFACE
  8
DEFAULT
 10
0.0625
 20
0.5
 30
0.9375
 11
0.0277778
 21
0.197049
 31
0.802951
 12
0
 22
0.5
 32
0.5
 13
0
 23
0.5
 33
0.5
  0
3DFACE
  8
DEFAULT
 10
0
 20
0.5
 30
0.5
 11
0.0277778
 21
0.802951
 31
0.802951
 12
0.0625
 22
0.5
 32
0.9375
 13
0.0625
 23
0.5
 33
0.9375
  0
3DFACE
  8
DEFAULT
 10
0.0625
 20
0.5
 30
0.9375
 11
0.0277778
 21
0.802951
 31
0.802951
 12
0.0833333
 22
0.916667
 32
0.916667
 13
0.0833333
 23
0.916667
 33
0.916667
  0
3DFACE
  8
DEFAULT
 10
0.0833333
 20
0.916667
 30
0.916667
 11
0.0277778
 21
0.802951
 31
0.802951
 12
0.0625
 22
0.9375
 32
0.5
 13
0.0625
 23
0.9375
 33
0.5
  0
3DFACE
  8
DEFAULT
 10
0.0625
 20
0.9375
 30
0.5
 11
0.0277778
 21
0.802951
 31
0.802951
 12
0
 22
0.5
 32
0.5
 13
0
 23
0.5
 33
0.5
  0
3DFACE
  8
DEFAULT
 10
0.5
 20
1
 30
0.5
 11
0.802951
 21
0.972222
 31
0.197049
 12
0.9375
 22
0.9375
 32
0.5
 13
0.9375
 23
0.9375
 33
0.5
  0
3DFACE
  8
DEFAULT
 10
0.9375
 20
0.9375
 30
0.5
 11
0.802951
 21
0.972222
 31
0.197049
 12
0.916667
 22
0.916667
 32
0.0833333
 13
0.916667
 23
0.916667
 33
0.0833333
  0
3DFACE
  8
DEFAULT
 10
0.916667
 20
0.916667
 30
0.0833333
 11
0.802951
 21
0.972222
 31
0.197049
 12
0.5
 22
0.9375
 32
0.0625
 13
0.5
 23
0.9375
 33
0.0625
  0
3DFACE
  8
DEFAULT
 10
0.5
 20
0.9375
 30
0.0625
 11
0.802951
 21
0.972222
 31
0.197049
 12
0.5
 22
1
 32
0.5
 13
0.5
 23
1
 33
0.5
  0
3DFACE
  8
DEFAULT
 10
0.5
 20
1
 30
0.5
 11
0.197049
 21
0.972222
 31
0.197049
 12
0.5
 22
0.9375
 32
0.0625
 13
0.5
 23
0.9375
 33
0.0625
  0
3DFACE
  8
DEFAULT
 10
0.5
 20
0.9375
 30
0.0625
 11
0.197049
 21
0.972222
 31
0.197049
 12
0.0833333
 22
0.916667
 32
0.0833333
 13
0.0833333
 23
0.916667
 33
0.0833333
  0
3DFACE
  8
DEFAULT
 10
0.0833333
 20
0.916667
 30
0.0833333
 11
0.197049
 21
0.972222
 31
0.197049
 12
0.0625
 22
0.9375
 32
0.5
 13
0.0625
 23
0.9375
 33
0.5
  0
3DFACE
  8
DEFAULT
 10
0.0625
 20
0.9375
 30
0.5
 11
0.197049
 21
0.972222
 31
0.197049
 12
0.5
 22
1
 32
0.5
 13
0.5
 23
1
 33
0.5
  0
3DFACE
  8
DEFAULT
 10
0.5
 20
1
 30
0.5
 11
0.197049
 21
0.972222
 31
0.802951
 12
0.0625
 22
0.9375
 32
0.5
 13
0.0625
 23
0.9375
 33
0.5
  0
3DFACE
  8
DEFAULT
 10
0.0625
 20
0.9375
 30
0.5
 11
0.197049
 21
0.972222
 31
0.802951
 12
0.0833333
 22
0.916667
 32
0.916667
 13
0.0833333
 23
0.916667
 33
0.916667
  0
3DFACE
  8
DEFAULT
 10
0.0833333
 20
0.916667
 30
0.916667
 11
0.197049
 21
0.972222
 31
0.802951
 12
0.5
 22
0.9375
 32
0.9375
 13
0.5
 23
0.9375
 33
0.9375
  0
3DFACE
  8
DEFAULT
 10
0.5
 20
0.9375
 30
0.9375
 11
0.197049
 21
0.972222
 31
0.802951
 12
0.5
 22
1
 32
0.5
 13
0.5
 23
1
 33
0.5
  0
3DFACE
  8
DEFAULT
 10
0.5
 20
1
 30
0.5
 11
0.802951
 21
0.972222
 31
0.802951
 12
0.5
 22
0.9375
 32
0.9375
 13
0.5
 23
0.9375
 33
0.9375
  0
3DFACE
  8
DEFAULT
 10
0.5
 20
0.9375
 30
0.9375
 11
0.802951
 21
0.972222
 31
0.802951
 12
0.916667
 22
0.916667
 32
0.916667
 13
0.916667
 23
0.916667
 33
0.916667
  0
3DFACE
  8
DEFAULT
 10
0.916667
 20
0.916667
 30
0.916667
 11
0.802951
 21
0.972222
 31
0.802951
 12
0.9375
 22
0.9375
 32
0.5
 13
0.9375
 23
0.9375
 33
0.5
  0
3DFACE
  8
DEFAULT
 10
0.9375
 20
0.9375
 30
0.5
 11
0.802951
 21
0.972222
 31
0.802951
 12
0.5
 22
1
 32
0.5
 13
0.5
 23
1
 33
0.5
  0
3DFACE
  8
DEFAULT
 10
0.5
 20
0
 30
0.5
 11
0.802951
 21
0.0277778
 31
0.802951
 12
0.9375
 22
0.0625
 32
0.5
 13
0.9375
 23
0.0625
 33
0.5
  0
3DFACE
  8
DEFAULT
 10
0.9375
 20
0.0625
 30
0.5
 11
0.802951
 21
0.0277778
 31
0.802951
 12
0.916667
 22
0.0833333
 32
0.916667
 13
0.916667
 23
0.0833333
 33
0.916667
  0
3DFACE
  8
DEFAULT
 10
0.916667
 20
0.0833333
 30
0.916667
 11
0.802951
 21
0.0277778
 31
0.802951
 12
0.5
 22
0.0625
 32
0.9375
 13
0.5
 23
0.0625
 33
0.9375
  0
3DFACE
  8
DEFAULT
 10
0.5
 20
0.0625
 30
0.9375
 11
0.802951
 21
0.0277778
 31
0.802951
 12
0.5
 22
0
 32
0.5
 13
0.5
 23
0
 33
0.5
  0
3DFACE
  8
DEFAULT
 10
0.5
 20
0
 30
0.5
 11
0.197049
 21
0.0277778
 31
0.802951
 12
0.5
 22
0.0625
 32
0.9375
 13
0.5
 23
0.0625
 33
0.9375
  0
3DFACE
  8
DEFAULT
 10
0.5
 20
0.0625
 30
0.9375
 11
0.197049
 21
0.0277778
 31
0.802951
 12
0.0833333
 22
0.0833333
 32
0.916667
 13
0.0833333
 23
0.0833333
 33
0.916667
  0
3DFACE
  8
DEFAULT
 10
0.0833333
 20
0.0833333
 30
0.916667
 11
0.197049
 21
0.0277778
 31
0.802951
 12
0.0625
 22
0.0625
 32
0.5
 13
0.0625
 23
0.0625
 33
0.5
  0
3DFACE
  8
DEFAULT
 10
0.0625
 20
0.0625
 30
0.5
 11
0.197049
 21
0.0277778
 31
0.802951
 12
0.5
 22
0
 32
0.5
 13
0.5
 23
0
 33
0.5
  0
3DFACE
  8
DEFAULT
 10
0.5
 20
0
 30
0.5
 11
0.197049
 21
0.0277778
 31
0.197049
 12
0.0625
 22
0.0625
 32
0.5
 13
0.0625
 23
0.0625
 33
0.5
  0
3DFACE
  8
DEFAULT
 10
0.0625
 20
0.0625
 30
0.5
 11
0.197049
 21
0.0277778
 31
0.197049
 12
0.0833333
 22
0.0833333
 32
0.0833333
 13
0.0833333
 23
0.0833333
 33
0.0833333
  0
3DFACE
  8
DEFAULT
 10
0.0833333
 20
0.0833333
 30
0.0833333
 11
0.197049
 21
0.0277778
 31
0.197049
 12
0.5
 22
0.0625
 32
0.0625
 13
0.5
 23
0.0625
 33
0.0625
  0
3DFACE
  8
DEFAULT
 10
0.5
 20
0.0625
 30
0.0625
 11
0.197049
 21
0.0277778
 31
0.197049
 12
0.5
 22
0
 32
0.5
 13
0.5
 23
0
 33
0.5
  0
3DFACE
  8
DEFAULT
 10
0.5
 20
0
 30
0.5
 11
0.802951
 21
0.0277778
 31
0.197049
 12
0.5
 22
0.0625
 32
0.0625
 13
0.5
 23
0.0625
 33
0.0625
  0
3DFACE
  8
DEFAULT
 10
0.5
 20
0.0625
 30
0.0625
 11
0.802951
 21
0.0277778
 31
0.197049
 12
0.916667
 22
0.0833333
 32
0.0833333
 13
0.916667
 23
0.0833333
 33
0.0833333
  0
3DFACE
  8
DEFAULT
 10
0.916667
 20
0.0833333
 30
0.0833333
 11
0.802951
 21
0.0277778
 31
0.197049
 12
0.9375
 22
0.0625
 32
0.5
 13
0.9375
 23
0.0625
 33
0.5
  0
3DFACE
  8
DEFAULT
 10
0.9375
 20
0.0625
 30
0.5
 11
0.802951
 21
0.0277778
 31
0.197049
 12
0.5
 22
0
 32
0.5
 13
0.5
 23
0
 33
0.5
  0
ENDSEC
  0
EOF
